<mxfile host="app.diagrams.net" modified="2023-04-26T00:42:26.978Z" agent="Mozilla/5.0 (Windows NT 10.0; Win64; x64) AppleWebKit/537.36 (KHTML, like Gecko) Chrome/112.0.0.0 Safari/537.36" etag="7vLWs4FT1DwvFyEtO6N1" version="21.1.9" type="google">
  <diagram name="Página-1" id="xck4-ly6coX7zP1FWHYF">
    <mxGraphModel grid="1" page="1" gridSize="10" guides="1" tooltips="1" connect="1" arrows="1" fold="1" pageScale="1" pageWidth="827" pageHeight="1169" math="0" shadow="0">
      <root>
        <mxCell id="0" />
        <mxCell id="1" parent="0" />
        <mxCell id="2FrXEwOe0IDWc8KqTiSz-30" style="edgeStyle=orthogonalEdgeStyle;rounded=0;orthogonalLoop=1;jettySize=auto;html=1;entryX=0;entryY=0.5;entryDx=0;entryDy=0;" edge="1" parent="1" source="2FrXEwOe0IDWc8KqTiSz-1" target="2FrXEwOe0IDWc8KqTiSz-20">
          <mxGeometry relative="1" as="geometry" />
        </mxCell>
        <mxCell id="2FrXEwOe0IDWc8KqTiSz-1" value="Usuario&lt;br&gt;" style="shape=umlActor;verticalLabelPosition=bottom;verticalAlign=top;html=1;" vertex="1" parent="1">
          <mxGeometry x="90" y="30" width="30" height="60" as="geometry" />
        </mxCell>
        <mxCell id="2FrXEwOe0IDWc8KqTiSz-2" value="user" style="swimlane;fontStyle=0;childLayout=stackLayout;horizontal=1;startSize=26;fillColor=none;horizontalStack=0;resizeParent=1;resizeParentMax=0;resizeLast=0;collapsible=1;marginBottom=0;whiteSpace=wrap;html=1;" vertex="1" parent="1">
          <mxGeometry x="590" y="40" width="140" height="104" as="geometry" />
        </mxCell>
        <mxCell id="2FrXEwOe0IDWc8KqTiSz-3" value="Carga horária" style="text;strokeColor=none;fillColor=none;align=left;verticalAlign=top;spacingLeft=4;spacingRight=4;overflow=hidden;rotatable=0;points=[[0,0.5],[1,0.5]];portConstraint=eastwest;whiteSpace=wrap;html=1;" vertex="1" parent="2FrXEwOe0IDWc8KqTiSz-2">
          <mxGeometry y="26" width="140" height="26" as="geometry" />
        </mxCell>
        <mxCell id="2FrXEwOe0IDWc8KqTiSz-4" value="Conteúdo programático" style="text;strokeColor=none;fillColor=none;align=left;verticalAlign=top;spacingLeft=4;spacingRight=4;overflow=hidden;rotatable=0;points=[[0,0.5],[1,0.5]];portConstraint=eastwest;whiteSpace=wrap;html=1;" vertex="1" parent="2FrXEwOe0IDWc8KqTiSz-2">
          <mxGeometry y="52" width="140" height="26" as="geometry" />
        </mxCell>
        <mxCell id="2FrXEwOe0IDWc8KqTiSz-5" value="Valor do curso" style="text;strokeColor=none;fillColor=none;align=left;verticalAlign=top;spacingLeft=4;spacingRight=4;overflow=hidden;rotatable=0;points=[[0,0.5],[1,0.5]];portConstraint=eastwest;whiteSpace=wrap;html=1;" vertex="1" parent="2FrXEwOe0IDWc8KqTiSz-2">
          <mxGeometry y="78" width="140" height="26" as="geometry" />
        </mxCell>
        <mxCell id="2FrXEwOe0IDWc8KqTiSz-40" style="edgeStyle=orthogonalEdgeStyle;rounded=0;orthogonalLoop=1;jettySize=auto;html=1;" edge="1" parent="1" source="2FrXEwOe0IDWc8KqTiSz-6">
          <mxGeometry relative="1" as="geometry">
            <mxPoint x="660.0000000000002" y="150" as="targetPoint" />
          </mxGeometry>
        </mxCell>
        <mxCell id="2FrXEwOe0IDWc8KqTiSz-6" value="gerente" style="swimlane;fontStyle=0;childLayout=stackLayout;horizontal=1;startSize=26;fillColor=none;horizontalStack=0;resizeParent=1;resizeParentMax=0;resizeLast=0;collapsible=1;marginBottom=0;whiteSpace=wrap;html=1;" vertex="1" parent="1">
          <mxGeometry x="590" y="230" width="140" height="104" as="geometry" />
        </mxCell>
        <mxCell id="2FrXEwOe0IDWc8KqTiSz-7" value="Telefone/endereço" style="text;strokeColor=none;fillColor=none;align=left;verticalAlign=top;spacingLeft=4;spacingRight=4;overflow=hidden;rotatable=0;points=[[0,0.5],[1,0.5]];portConstraint=eastwest;whiteSpace=wrap;html=1;" vertex="1" parent="2FrXEwOe0IDWc8KqTiSz-6">
          <mxGeometry y="26" width="140" height="26" as="geometry" />
        </mxCell>
        <mxCell id="2FrXEwOe0IDWc8KqTiSz-8" value="Data de inicio&amp;nbsp;" style="text;strokeColor=none;fillColor=none;align=left;verticalAlign=top;spacingLeft=4;spacingRight=4;overflow=hidden;rotatable=0;points=[[0,0.5],[1,0.5]];portConstraint=eastwest;whiteSpace=wrap;html=1;" vertex="1" parent="2FrXEwOe0IDWc8KqTiSz-6">
          <mxGeometry y="52" width="140" height="26" as="geometry" />
        </mxCell>
        <mxCell id="2FrXEwOe0IDWc8KqTiSz-9" value="Horário de inicio" style="text;strokeColor=none;fillColor=none;align=left;verticalAlign=top;spacingLeft=4;spacingRight=4;overflow=hidden;rotatable=0;points=[[0,0.5],[1,0.5]];portConstraint=eastwest;whiteSpace=wrap;html=1;" vertex="1" parent="2FrXEwOe0IDWc8KqTiSz-6">
          <mxGeometry y="78" width="140" height="26" as="geometry" />
        </mxCell>
        <mxCell id="2FrXEwOe0IDWc8KqTiSz-19" style="edgeStyle=orthogonalEdgeStyle;rounded=0;orthogonalLoop=1;jettySize=auto;html=1;" edge="1" parent="1" source="2FrXEwOe0IDWc8KqTiSz-14">
          <mxGeometry relative="1" as="geometry">
            <mxPoint x="220" y="300" as="targetPoint" />
          </mxGeometry>
        </mxCell>
        <mxCell id="2FrXEwOe0IDWc8KqTiSz-14" value="Gerente" style="shape=umlActor;verticalLabelPosition=bottom;verticalAlign=top;html=1;" vertex="1" parent="1">
          <mxGeometry x="90" y="270" width="30" height="60" as="geometry" />
        </mxCell>
        <mxCell id="2FrXEwOe0IDWc8KqTiSz-25" style="edgeStyle=orthogonalEdgeStyle;rounded=0;orthogonalLoop=1;jettySize=auto;html=1;" edge="1" parent="1" source="2FrXEwOe0IDWc8KqTiSz-20" target="2FrXEwOe0IDWc8KqTiSz-21">
          <mxGeometry relative="1" as="geometry" />
        </mxCell>
        <mxCell id="2FrXEwOe0IDWc8KqTiSz-20" value="Interface do usuario" style="ellipse;whiteSpace=wrap;html=1;" vertex="1" parent="1">
          <mxGeometry x="240" y="30" width="120" height="60" as="geometry" />
        </mxCell>
        <mxCell id="2FrXEwOe0IDWc8KqTiSz-26" style="edgeStyle=orthogonalEdgeStyle;rounded=0;orthogonalLoop=1;jettySize=auto;html=1;entryX=0;entryY=0.5;entryDx=0;entryDy=0;" edge="1" parent="1" source="2FrXEwOe0IDWc8KqTiSz-21" target="2FrXEwOe0IDWc8KqTiSz-22">
          <mxGeometry relative="1" as="geometry" />
        </mxCell>
        <mxCell id="2FrXEwOe0IDWc8KqTiSz-27" style="edgeStyle=orthogonalEdgeStyle;rounded=0;orthogonalLoop=1;jettySize=auto;html=1;" edge="1" parent="1" source="2FrXEwOe0IDWc8KqTiSz-21" target="2FrXEwOe0IDWc8KqTiSz-23">
          <mxGeometry relative="1" as="geometry" />
        </mxCell>
        <mxCell id="2FrXEwOe0IDWc8KqTiSz-28" style="edgeStyle=orthogonalEdgeStyle;rounded=0;orthogonalLoop=1;jettySize=auto;html=1;entryX=0;entryY=0.5;entryDx=0;entryDy=0;" edge="1" parent="1" source="2FrXEwOe0IDWc8KqTiSz-21" target="2FrXEwOe0IDWc8KqTiSz-24">
          <mxGeometry relative="1" as="geometry" />
        </mxCell>
        <mxCell id="2FrXEwOe0IDWc8KqTiSz-21" value="Cadastro&amp;nbsp;" style="ellipse;whiteSpace=wrap;html=1;" vertex="1" parent="1">
          <mxGeometry x="240" y="120" width="120" height="80" as="geometry" />
        </mxCell>
        <mxCell id="2FrXEwOe0IDWc8KqTiSz-22" value="registrar email" style="ellipse;whiteSpace=wrap;html=1;" vertex="1" parent="1">
          <mxGeometry x="400" y="40" width="120" height="80" as="geometry" />
        </mxCell>
        <mxCell id="2FrXEwOe0IDWc8KqTiSz-23" value="registrar número" style="ellipse;whiteSpace=wrap;html=1;" vertex="1" parent="1">
          <mxGeometry x="414" y="120" width="120" height="80" as="geometry" />
        </mxCell>
        <mxCell id="2FrXEwOe0IDWc8KqTiSz-24" value="registrar cpf" style="ellipse;whiteSpace=wrap;html=1;" vertex="1" parent="1">
          <mxGeometry x="400" y="200" width="120" height="80" as="geometry" />
        </mxCell>
        <mxCell id="2FrXEwOe0IDWc8KqTiSz-31" style="edgeStyle=orthogonalEdgeStyle;rounded=0;orthogonalLoop=1;jettySize=auto;html=1;" edge="1" parent="1" source="2FrXEwOe0IDWc8KqTiSz-32" target="2FrXEwOe0IDWc8KqTiSz-36">
          <mxGeometry relative="1" as="geometry" />
        </mxCell>
        <mxCell id="2FrXEwOe0IDWc8KqTiSz-32" value="Interface do geremte" style="ellipse;whiteSpace=wrap;html=1;" vertex="1" parent="1">
          <mxGeometry x="226" y="270" width="120" height="60" as="geometry" />
        </mxCell>
        <mxCell id="2FrXEwOe0IDWc8KqTiSz-33" style="edgeStyle=orthogonalEdgeStyle;rounded=0;orthogonalLoop=1;jettySize=auto;html=1;entryX=0;entryY=0.5;entryDx=0;entryDy=0;" edge="1" parent="1" source="2FrXEwOe0IDWc8KqTiSz-36" target="2FrXEwOe0IDWc8KqTiSz-37">
          <mxGeometry relative="1" as="geometry" />
        </mxCell>
        <mxCell id="2FrXEwOe0IDWc8KqTiSz-34" style="edgeStyle=orthogonalEdgeStyle;rounded=0;orthogonalLoop=1;jettySize=auto;html=1;" edge="1" parent="1" source="2FrXEwOe0IDWc8KqTiSz-36" target="2FrXEwOe0IDWc8KqTiSz-38">
          <mxGeometry relative="1" as="geometry" />
        </mxCell>
        <mxCell id="2FrXEwOe0IDWc8KqTiSz-35" style="edgeStyle=orthogonalEdgeStyle;rounded=0;orthogonalLoop=1;jettySize=auto;html=1;entryX=0;entryY=0.5;entryDx=0;entryDy=0;" edge="1" parent="1" source="2FrXEwOe0IDWc8KqTiSz-36" target="2FrXEwOe0IDWc8KqTiSz-39">
          <mxGeometry relative="1" as="geometry" />
        </mxCell>
        <mxCell id="2FrXEwOe0IDWc8KqTiSz-36" value="Pagina de administração" style="ellipse;whiteSpace=wrap;html=1;" vertex="1" parent="1">
          <mxGeometry x="226" y="360" width="120" height="80" as="geometry" />
        </mxCell>
        <mxCell id="2FrXEwOe0IDWc8KqTiSz-37" value="controle dos horarios" style="ellipse;whiteSpace=wrap;html=1;" vertex="1" parent="1">
          <mxGeometry x="386" y="280" width="120" height="80" as="geometry" />
        </mxCell>
        <mxCell id="2FrXEwOe0IDWc8KqTiSz-38" value="controle dos contatos com professores" style="ellipse;whiteSpace=wrap;html=1;" vertex="1" parent="1">
          <mxGeometry x="400" y="360" width="160" height="80" as="geometry" />
        </mxCell>
        <mxCell id="2FrXEwOe0IDWc8KqTiSz-39" value="controle das datas" style="ellipse;whiteSpace=wrap;html=1;" vertex="1" parent="1">
          <mxGeometry x="386" y="440" width="120" height="80" as="geometry" />
        </mxCell>
      </root>
    </mxGraphModel>
  </diagram>
</mxfile>
